<?xml version="1.0" standalone="no"?>
<!DOCTYPE svg PUBLIC "-//W3C//DTD SVG 20010904//EN"
 "http://www.w3.org/TR/2001/REC-SVG-20010904/DTD/svg10.dtd">
<svg version="1.0" xmlns="http://www.w3.org/2000/svg"
 width="225.000000pt" height="225.000000pt" viewBox="0 0 225.000000 225.000000"
 preserveAspectRatio="xMidYMid meet">
<metadata>
Created by potrace 1.11, written by Peter Selinger 2001-2013
</metadata>
<g transform="translate(0.000000,225.000000) scale(0.100000,-0.100000)"
fill="#000000" stroke="none">
<path d="M950 2235 c0 -12 -15 -15 -75 -15 -64 0 -76 -3 -85 -20 -6 -12 -21
-20 -35 -20 -16 0 -25 -6 -25 -15 0 -11 -12 -15 -50 -15 -38 0 -50 -4 -50 -15
0 -8 -7 -15 -15 -15 -8 0 -15 -7 -15 -15 0 -10 -10 -15 -30 -15 -20 0 -30 -5
-30 -15 0 -10 -10 -15 -30 -15 -20 0 -30 -5 -30 -15 0 -8 -6 -15 -12 -15 -16
0 -58 -44 -58 -59 0 -6 -7 -11 -15 -11 -8 0 -15 -7 -15 -15 0 -8 -7 -15 -15
-15 -8 0 -15 -7 -15 -15 0 -8 -7 -15 -15 -15 -8 0 -15 -7 -15 -15 0 -8 -7 -15
-15 -15 -8 0 -15 -7 -15 -15 0 -8 -5 -15 -11 -15 -15 0 -59 -42 -59 -57 0 -7
-7 -13 -15 -13 -10 0 -15 -10 -15 -30 0 -20 -5 -30 -15 -30 -10 0 -15 -10 -15
-30 0 -20 -5 -30 -15 -30 -8 0 -15 -7 -15 -15 0 -8 -7 -15 -15 -15 -11 0 -15
-12 -15 -50 0 -38 -4 -50 -15 -50 -9 0 -15 -9 -15 -25 0 -14 -8 -29 -20 -35
-17 -9 -20 -21 -20 -85 0 -60 -3 -75 -15 -75 -13 0 -15 -26 -15 -175 0 -149 2
-175 15 -175 12 0 15 -16 15 -80 0 -61 3 -80 14 -80 7 0 18 -15 23 -32 5 -18
15 -32 21 -30 8 1 12 -15 12 -48 0 -38 4 -50 15 -50 8 0 15 -7 15 -15 0 -8 7
-15 15 -15 10 0 15 -10 15 -30 0 -20 5 -30 15 -30 10 0 15 -11 15 -35 0 -24 5
-35 15 -35 8 0 15 -7 15 -15 0 -8 7 -15 15 -15 8 0 15 -7 15 -15 0 -8 9 -15
20 -15 11 0 20 -7 20 -15 0 -8 7 -15 15 -15 8 0 15 -6 15 -14 0 -8 7 -16 15
-20 8 -3 15 -12 15 -21 0 -8 7 -15 15 -15 8 0 15 -7 15 -15 0 -8 7 -15 15 -15
8 0 15 -7 15 -15 0 -8 7 -15 15 -15 8 0 15 -7 15 -15 0 -8 9 -15 20 -15 11 0
20 -7 20 -15 0 -10 10 -15 30 -15 20 0 30 -5 30 -15 0 -10 10 -15 30 -15 17 0
30 -5 30 -12 1 -28 47 -58 89 -58 30 0 41 -4 41 -15 0 -10 10 -15 30 -15 20 0
30 -5 30 -15 0 -12 16 -15 80 -15 64 0 80 -3 80 -15 0 -13 26 -15 175 -15 149
0 175 2 175 15 0 12 16 15 80 15 64 0 80 3 80 15 0 10 10 15 30 15 18 0 33 6
36 15 4 10 20 15 50 15 32 0 44 4 44 15 0 8 6 15 14 15 7 0 16 9 19 20 3 13
14 20 30 20 14 0 27 7 31 15 3 9 18 15 36 15 20 0 30 5 30 15 0 8 7 15 15 15
8 0 15 7 15 15 0 8 7 15 15 15 8 0 15 7 15 15 0 8 7 15 15 15 8 0 15 6 15 14
0 7 9 16 21 19 12 3 18 10 14 17 -4 7 2 14 14 17 12 3 21 12 21 19 0 8 7 14
15 14 8 0 15 7 15 15 0 8 7 15 15 15 8 0 15 7 15 15 0 8 7 15 15 15 8 0 15 7
15 15 0 8 6 15 14 15 9 0 16 12 18 33 2 19 8 31 16 29 7 -1 12 10 12 29 0 22
5 32 20 36 11 3 20 12 20 19 0 8 7 14 15 14 11 0 15 12 15 50 0 38 4 50 15 50
10 0 15 10 15 30 0 20 5 30 15 30 12 0 15 16 15 80 0 64 3 80 15 80 13 0 15
26 15 175 0 149 -2 175 -15 175 -12 0 -15 16 -15 80 0 64 -3 80 -15 80 -10 0
-15 10 -15 30 0 20 -5 30 -15 30 -11 0 -15 11 -15 43 0 31 -6 48 -24 65 -13
12 -29 22 -35 22 -6 0 -11 14 -11 30 0 20 -5 30 -15 30 -10 0 -15 10 -15 30 0
20 -5 30 -15 30 -8 0 -15 9 -15 20 0 11 -7 20 -15 20 -8 0 -15 7 -15 15 0 8
-7 15 -15 15 -8 0 -15 7 -15 15 0 8 -7 15 -15 15 -8 0 -15 7 -15 15 0 9 -9 15
-21 15 -15 0 -19 5 -15 15 4 10 -1 15 -14 15 -11 0 -20 7 -20 15 0 8 -7 15
-15 15 -8 0 -15 7 -15 15 0 9 -7 18 -15 21 -8 4 -15 12 -15 20 0 8 -7 14 -15
14 -8 0 -15 7 -15 15 0 10 -11 15 -35 15 -24 0 -35 5 -35 15 0 10 -10 15 -30
15 -20 0 -30 5 -30 15 0 8 -7 15 -15 15 -8 0 -15 7 -15 15 0 11 -12 15 -50 15
-32 0 -49 4 -48 11 2 7 -12 16 -29 21 -18 5 -33 15 -33 23 0 12 -16 15 -80 15
-64 0 -80 3 -80 15 0 13 -26 15 -175 15 -149 0 -175 -2 -175 -15z m350 -200
c0 -12 13 -15 59 -15 43 0 60 -4 65 -15 4 -10 20 -15 51 -15 33 0 45 -4 45
-15 0 -10 10 -15 30 -15 20 0 30 -5 30 -15 0 -8 6 -15 14 -15 7 0 16 -8 18
-18 4 -15 12 -18 37 -14 26 4 31 1 31 -17 0 -12 6 -21 15 -21 8 0 15 -7 15
-15 0 -8 7 -15 15 -15 8 0 15 -7 15 -15 0 -8 7 -15 15 -15 8 0 15 -7 15 -15 0
-8 -7 -15 -15 -15 -8 0 -15 -7 -15 -15 0 -8 -7 -15 -15 -15 -8 0 -15 -7 -15
-15 0 -8 -7 -15 -15 -15 -8 0 -15 -7 -15 -15 0 -8 -7 -15 -15 -15 -8 0 -15 -7
-15 -15 0 -10 -10 -15 -30 -15 -20 0 -30 5 -30 15 0 8 -7 15 -15 15 -8 0 -15
7 -15 15 0 10 -11 15 -35 15 -24 0 -35 5 -35 15 0 8 -7 15 -15 15 -8 0 -15 7
-15 15 0 10 -10 15 -29 15 -20 0 -30 6 -34 20 -3 11 -9 20 -14 19 -4 -1 -32
-1 -60 0 -40 1 -53 5 -53 16 0 22 -275 22 -287 1 -5 -10 -29 -16 -68 -18 -51
-3 -60 -6 -57 -20 2 -14 -4 -18 -33 -18 -24 0 -35 -4 -35 -15 0 -8 -7 -15 -15
-15 -8 0 -15 -7 -15 -15 0 -10 -10 -15 -30 -15 -20 0 -30 -5 -30 -15 0 -8 -7
-15 -15 -15 -8 0 -15 -7 -15 -15 0 -8 -7 -15 -15 -15 -8 0 -15 -6 -15 -14 0
-8 -9 -18 -20 -21 -11 -3 -20 -13 -20 -21 0 -8 -7 -14 -15 -14 -8 0 -15 -7
-15 -15 0 -8 -7 -15 -15 -15 -10 0 -15 -10 -15 -30 0 -20 -5 -30 -15 -30 -8 0
-15 -7 -15 -15 0 -8 -7 -15 -15 -15 -10 0 -15 -11 -15 -35 0 -28 -4 -35 -19
-35 -16 0 -19 -8 -19 -55 1 -41 -4 -59 -16 -68 -16 -11 -17 -27 -10 -150 5
-105 10 -137 20 -137 10 0 14 -16 14 -60 0 -47 3 -60 15 -60 10 0 15 -11 15
-35 0 -24 5 -35 15 -35 8 0 15 -7 15 -15 0 -8 8 -15 18 -15 15 0 18 -6 14 -30
-3 -19 0 -30 8 -30 15 0 90 -74 90 -89 0 -6 7 -11 15 -11 8 0 15 -7 15 -15 0
-8 7 -15 15 -15 8 0 15 -9 15 -19 0 -14 5 -18 20 -14 20 5 70 -36 70 -58 0 -5
16 -9 35 -9 24 0 35 -5 35 -15 0 -12 13 -15 60 -15 47 0 60 -3 60 -15 0 -13
23 -15 145 -15 122 0 145 2 145 15 0 12 14 15 65 15 51 0 65 3 65 15 0 10 10
15 30 15 20 0 30 5 30 15 0 8 6 15 14 15 7 0 16 10 19 21 5 17 11 21 33 16 20
-3 28 0 31 14 3 11 12 19 19 19 8 0 14 7 14 15 0 8 7 15 15 15 8 0 15 7 15 15
0 8 7 15 15 15 8 0 15 7 15 15 0 8 7 15 15 15 8 0 15 6 15 14 0 7 9 16 20 19
17 4 20 11 15 36 -4 26 -2 31 15 31 11 0 20 7 20 15 0 8 7 15 15 15 10 0 15
10 15 30 0 20 5 30 15 30 12 0 15 14 15 65 0 51 3 65 15 65 12 0 15 14 15 65
l0 65 110 0 110 0 0 -80 c0 -70 -2 -80 -17 -80 -16 0 -18 -8 -15 -60 3 -48 1
-61 -12 -66 -11 -4 -16 -19 -16 -50 0 -37 -3 -44 -20 -44 -15 0 -20 -7 -20
-25 0 -15 -12 -38 -30 -55 -18 -17 -30 -40 -30 -55 0 -16 -6 -25 -15 -25 -8 0
-15 -7 -15 -15 0 -8 -7 -15 -15 -15 -8 0 -15 -6 -15 -14 0 -7 -9 -16 -21 -19
-12 -3 -18 -10 -14 -16 3 -6 -1 -11 -10 -11 -9 0 -19 -9 -22 -20 -3 -11 -10
-17 -15 -14 -5 3 -12 -3 -15 -15 -3 -12 -12 -21 -19 -21 -8 0 -14 -7 -14 -15
0 -8 -7 -15 -15 -15 -8 0 -15 -7 -15 -15 0 -10 -10 -15 -30 -15 -20 0 -30 -5
-30 -15 0 -8 -7 -15 -15 -15 -9 0 -18 -7 -21 -15 -4 -9 -19 -15 -35 -15 -22 0
-29 -5 -29 -20 0 -17 -7 -20 -50 -20 -35 0 -49 -4 -48 -13 2 -8 -16 -13 -59
-15 -48 -2 -63 -7 -63 -18 0 -12 -26 -14 -172 -12 -132 2 -172 6 -170 16 1 8
-16 12 -63 12 -51 0 -65 3 -65 15 0 8 -10 16 -22 17 -13 0 -27 2 -33 3 -5 2
-18 3 -27 4 -10 0 -18 8 -18 16 0 10 -10 15 -30 15 -20 0 -30 5 -30 15 0 8 -7
15 -15 15 -8 0 -15 6 -15 14 0 9 -12 16 -32 18 -20 2 -32 8 -30 16 1 6 -7 12
-18 12 -11 0 -20 7 -20 15 0 8 -7 15 -15 15 -8 0 -15 9 -15 20 0 13 -5 18 -15
14 -9 -4 -15 0 -15 10 0 9 -5 16 -11 16 -15 0 -89 74 -89 89 0 6 -7 11 -15 11
-10 0 -15 10 -15 30 0 20 -5 30 -15 30 -8 0 -15 7 -15 15 0 8 -7 15 -15 15
-10 0 -15 10 -15 31 0 22 -5 32 -20 36 -16 4 -20 14 -20 49 0 32 -4 44 -15 44
-12 0 -15 14 -15 65 0 51 -3 65 -15 65 -17 0 -19 37 -8 228 4 79 10 120 17
119 7 -1 12 22 14 61 2 46 7 62 17 62 11 0 15 13 15 50 0 38 4 50 15 50 10 0
15 10 15 30 0 20 5 30 15 30 8 0 15 7 15 15 0 8 7 15 15 15 10 0 15 10 15 30
0 21 5 30 16 30 9 0 18 9 21 20 3 11 12 20 19 20 8 0 14 7 14 15 0 8 7 15 15
15 8 0 15 7 15 15 0 8 7 15 15 15 8 0 15 7 15 15 0 8 7 15 15 15 8 0 15 7 15
15 0 8 7 15 15 15 8 0 15 6 15 14 0 7 9 16 20 19 11 3 19 11 18 19 -2 8 9 14
30 16 20 2 32 9 32 18 0 8 7 14 15 14 8 0 15 7 15 15 0 10 10 15 30 15 20 0
30 5 30 15 0 11 12 15 50 15 37 0 50 4 50 15 0 10 16 15 63 17 43 2 61 7 60
16 -2 9 37 12 172 12 149 0 175 -2 175 -15z m-162 -369 c-2 -5 7 -13 20 -17
17 -6 23 -15 20 -31 -1 -13 1 -24 6 -25 14 -2 26 -26 26 -50 0 -14 6 -23 15
-23 10 0 15 -10 15 -30 0 -20 5 -30 15 -30 10 0 15 -11 15 -35 0 -24 5 -35 15
-35 8 0 15 -7 15 -15 0 -8 7 -15 15 -15 8 0 15 -7 15 -15 0 -8 -7 -15 -15 -15
-8 0 -15 -7 -15 -15 0 -8 -9 -15 -20 -15 -13 0 -18 -5 -14 -15 4 -9 0 -15 -10
-15 -9 0 -16 -7 -16 -15 0 -8 -6 -15 -14 -15 -8 0 -18 -9 -21 -20 -3 -11 -13
-20 -21 -20 -8 0 -14 -7 -14 -15 0 -8 -7 -15 -15 -15 -8 0 -15 -9 -15 -19 0
-11 -6 -21 -12 -24 -34 -12 12 -19 133 -20 96 -2 133 -5 136 -15 3 -6 -6 -16
-18 -21 l-23 -8 23 -12 c17 -10 22 -19 18 -38 -3 -19 0 -27 14 -30 15 -4 19
-15 19 -49 0 -32 4 -44 15 -44 10 0 15 -11 15 -35 0 -24 5 -35 15 -35 12 0 15
-14 15 -62 0 -63 0 -63 -30 -65 -24 -2 -30 2 -30 17 0 16 -7 20 -35 20 -24 0
-35 5 -35 15 0 8 -7 15 -15 15 -8 0 -15 7 -15 15 0 10 -10 15 -30 15 -20 0
-30 5 -30 15 0 10 -10 15 -29 15 -16 0 -31 6 -35 15 -3 9 -18 15 -36 15 -23 0
-30 4 -30 20 0 13 -5 18 -15 14 -8 -4 -15 -12 -15 -20 0 -9 -11 -14 -30 -14
-20 0 -30 -5 -30 -15 0 -10 -10 -15 -30 -15 -20 0 -30 -5 -30 -15 0 -10 -11
-15 -35 -15 -24 0 -35 -5 -35 -15 0 -8 -7 -15 -15 -15 -8 0 -15 -7 -15 -15 0
-10 -10 -15 -29 -15 -20 0 -30 -6 -34 -20 -7 -28 -57 -28 -64 0 -4 14 -14 20
-34 20 -19 0 -29 5 -29 15 0 8 -7 15 -15 15 -8 0 -15 7 -15 15 0 8 -7 15 -15
15 -8 0 -15 6 -15 14 0 7 -9 16 -20 19 -15 4 -20 14 -20 36 0 21 -5 31 -15 31
-11 0 -15 11 -15 40 0 27 -5 43 -15 46 -12 5 -15 24 -15 85 l0 79 124 0 c101
0 125 3 130 15 4 10 -1 15 -14 15 -11 0 -20 7 -20 15 0 8 -7 15 -15 15 -8 0
-15 7 -15 15 0 8 -7 15 -15 15 -8 0 -15 9 -15 20 0 13 -5 18 -15 14 -9 -4 -15
0 -15 9 0 8 -7 17 -15 21 -8 3 -15 12 -15 21 0 13 19 15 125 15 104 0 125 2
125 15 0 10 10 15 30 15 20 0 30 5 30 15 0 8 7 15 15 15 10 0 15 10 15 31 0
22 6 32 19 36 12 3 19 14 19 30 0 14 7 30 16 35 9 5 16 20 16 33 0 16 6 25 15
25 10 0 15 11 15 35 0 24 5 35 15 35 8 0 15 7 15 16 0 9 7 14 16 12 8 -2 14
-7 12 -12z"/>
</g>
</svg>
